<mxfile host="Electron" modified="2024-03-11T16:08:24.616Z" agent="Mozilla/5.0 (Windows NT 10.0; Win64; x64) AppleWebKit/537.36 (KHTML, like Gecko) draw.io/24.0.4 Chrome/120.0.6099.109 Electron/28.1.0 Safari/537.36" etag="3IGDupZlRSQcMzCkjbKk" version="24.0.4" type="device">
  <diagram id="C5RBs43oDa-KdzZeNtuy" name="Page-1">
    <mxGraphModel dx="1430" dy="825" grid="1" gridSize="10" guides="1" tooltips="1" connect="1" arrows="1" fold="1" page="1" pageScale="1" pageWidth="827" pageHeight="1169" math="0" shadow="0">
      <root>
        <mxCell id="WIyWlLk6GJQsqaUBKTNV-0" />
        <mxCell id="WIyWlLk6GJQsqaUBKTNV-1" parent="WIyWlLk6GJQsqaUBKTNV-0" />
        <mxCell id="zkfFHV4jXpPFQw0GAbJ--6" value="PizzaStore" style="swimlane;fontStyle=0;align=center;verticalAlign=top;childLayout=stackLayout;horizontal=1;startSize=26;horizontalStack=0;resizeParent=1;resizeLast=0;collapsible=1;marginBottom=0;rounded=0;shadow=0;strokeWidth=1;" parent="WIyWlLk6GJQsqaUBKTNV-1" vertex="1">
          <mxGeometry x="50" y="360" width="160" height="60" as="geometry">
            <mxRectangle x="130" y="380" width="160" height="26" as="alternateBounds" />
          </mxGeometry>
        </mxCell>
        <mxCell id="zkfFHV4jXpPFQw0GAbJ--9" value="" style="line;html=1;strokeWidth=1;align=left;verticalAlign=middle;spacingTop=-1;spacingLeft=3;spacingRight=3;rotatable=0;labelPosition=right;points=[];portConstraint=eastwest;" parent="zkfFHV4jXpPFQw0GAbJ--6" vertex="1">
          <mxGeometry y="26" width="160" height="8" as="geometry" />
        </mxCell>
        <mxCell id="zkfFHV4jXpPFQw0GAbJ--10" value="+ orderPizza()" style="text;align=left;verticalAlign=top;spacingLeft=4;spacingRight=4;overflow=hidden;rotatable=0;points=[[0,0.5],[1,0.5]];portConstraint=eastwest;fontStyle=0" parent="zkfFHV4jXpPFQw0GAbJ--6" vertex="1">
          <mxGeometry y="34" width="160" height="26" as="geometry" />
        </mxCell>
        <mxCell id="hSVaMQJo7yX8vhGdQ6RE-26" value="SimplePizzaFactory" style="swimlane;fontStyle=0;align=center;verticalAlign=top;childLayout=stackLayout;horizontal=1;startSize=26;horizontalStack=0;resizeParent=1;resizeLast=0;collapsible=1;marginBottom=0;rounded=0;shadow=0;strokeWidth=1;" parent="WIyWlLk6GJQsqaUBKTNV-1" vertex="1">
          <mxGeometry x="260" y="360" width="160" height="60" as="geometry">
            <mxRectangle x="130" y="380" width="160" height="26" as="alternateBounds" />
          </mxGeometry>
        </mxCell>
        <mxCell id="hSVaMQJo7yX8vhGdQ6RE-27" value="" style="line;html=1;strokeWidth=1;align=left;verticalAlign=middle;spacingTop=-1;spacingLeft=3;spacingRight=3;rotatable=0;labelPosition=right;points=[];portConstraint=eastwest;" parent="hSVaMQJo7yX8vhGdQ6RE-26" vertex="1">
          <mxGeometry y="26" width="160" height="8" as="geometry" />
        </mxCell>
        <mxCell id="hSVaMQJo7yX8vhGdQ6RE-28" value="+ createPizza()" style="text;align=left;verticalAlign=top;spacingLeft=4;spacingRight=4;overflow=hidden;rotatable=0;points=[[0,0.5],[1,0.5]];portConstraint=eastwest;fontStyle=0" parent="hSVaMQJo7yX8vhGdQ6RE-26" vertex="1">
          <mxGeometry y="34" width="160" height="26" as="geometry" />
        </mxCell>
        <mxCell id="hSVaMQJo7yX8vhGdQ6RE-30" value="Pizza" style="swimlane;fontStyle=0;align=center;verticalAlign=top;childLayout=stackLayout;horizontal=1;startSize=26;horizontalStack=0;resizeParent=1;resizeLast=0;collapsible=1;marginBottom=0;rounded=0;shadow=0;strokeWidth=1;" parent="WIyWlLk6GJQsqaUBKTNV-1" vertex="1">
          <mxGeometry x="480" y="360" width="160" height="138" as="geometry">
            <mxRectangle x="130" y="380" width="160" height="26" as="alternateBounds" />
          </mxGeometry>
        </mxCell>
        <mxCell id="hSVaMQJo7yX8vhGdQ6RE-31" value="" style="line;html=1;strokeWidth=1;align=left;verticalAlign=middle;spacingTop=-1;spacingLeft=3;spacingRight=3;rotatable=0;labelPosition=right;points=[];portConstraint=eastwest;" parent="hSVaMQJo7yX8vhGdQ6RE-30" vertex="1">
          <mxGeometry y="26" width="160" height="8" as="geometry" />
        </mxCell>
        <mxCell id="hSVaMQJo7yX8vhGdQ6RE-32" value="+ prepare()" style="text;align=left;verticalAlign=top;spacingLeft=4;spacingRight=4;overflow=hidden;rotatable=0;points=[[0,0.5],[1,0.5]];portConstraint=eastwest;fontStyle=0" parent="hSVaMQJo7yX8vhGdQ6RE-30" vertex="1">
          <mxGeometry y="34" width="160" height="26" as="geometry" />
        </mxCell>
        <mxCell id="4ed0H5D4KdvsGd9FrCkh-0" value="+ bake()" style="text;align=left;verticalAlign=top;spacingLeft=4;spacingRight=4;overflow=hidden;rotatable=0;points=[[0,0.5],[1,0.5]];portConstraint=eastwest;fontStyle=0" vertex="1" parent="hSVaMQJo7yX8vhGdQ6RE-30">
          <mxGeometry y="60" width="160" height="26" as="geometry" />
        </mxCell>
        <mxCell id="4ed0H5D4KdvsGd9FrCkh-1" value="+ cut()" style="text;align=left;verticalAlign=top;spacingLeft=4;spacingRight=4;overflow=hidden;rotatable=0;points=[[0,0.5],[1,0.5]];portConstraint=eastwest;fontStyle=0" vertex="1" parent="hSVaMQJo7yX8vhGdQ6RE-30">
          <mxGeometry y="86" width="160" height="26" as="geometry" />
        </mxCell>
        <mxCell id="4ed0H5D4KdvsGd9FrCkh-2" value="+ box()" style="text;align=left;verticalAlign=top;spacingLeft=4;spacingRight=4;overflow=hidden;rotatable=0;points=[[0,0.5],[1,0.5]];portConstraint=eastwest;fontStyle=0" vertex="1" parent="hSVaMQJo7yX8vhGdQ6RE-30">
          <mxGeometry y="112" width="160" height="26" as="geometry" />
        </mxCell>
        <mxCell id="4ed0H5D4KdvsGd9FrCkh-3" value="CheesePizza" style="swimlane;fontStyle=0;align=center;verticalAlign=top;childLayout=stackLayout;horizontal=1;startSize=26;horizontalStack=0;resizeParent=1;resizeLast=0;collapsible=1;marginBottom=0;rounded=0;shadow=0;strokeWidth=1;" vertex="1" parent="WIyWlLk6GJQsqaUBKTNV-1">
          <mxGeometry x="305" y="585" width="120" height="34" as="geometry">
            <mxRectangle x="130" y="380" width="160" height="26" as="alternateBounds" />
          </mxGeometry>
        </mxCell>
        <mxCell id="4ed0H5D4KdvsGd9FrCkh-4" value="" style="line;html=1;strokeWidth=1;align=left;verticalAlign=middle;spacingTop=-1;spacingLeft=3;spacingRight=3;rotatable=0;labelPosition=right;points=[];portConstraint=eastwest;" vertex="1" parent="4ed0H5D4KdvsGd9FrCkh-3">
          <mxGeometry y="26" width="120" height="8" as="geometry" />
        </mxCell>
        <mxCell id="4ed0H5D4KdvsGd9FrCkh-6" value="VeggiePizza" style="swimlane;fontStyle=0;align=center;verticalAlign=top;childLayout=stackLayout;horizontal=1;startSize=26;horizontalStack=0;resizeParent=1;resizeLast=0;collapsible=1;marginBottom=0;rounded=0;shadow=0;strokeWidth=1;" vertex="1" parent="WIyWlLk6GJQsqaUBKTNV-1">
          <mxGeometry x="435" y="585" width="120" height="34" as="geometry">
            <mxRectangle x="130" y="380" width="160" height="26" as="alternateBounds" />
          </mxGeometry>
        </mxCell>
        <mxCell id="4ed0H5D4KdvsGd9FrCkh-7" value="" style="line;html=1;strokeWidth=1;align=left;verticalAlign=middle;spacingTop=-1;spacingLeft=3;spacingRight=3;rotatable=0;labelPosition=right;points=[];portConstraint=eastwest;" vertex="1" parent="4ed0H5D4KdvsGd9FrCkh-6">
          <mxGeometry y="26" width="120" height="8" as="geometry" />
        </mxCell>
        <mxCell id="4ed0H5D4KdvsGd9FrCkh-8" value="ClamPizza" style="swimlane;fontStyle=0;align=center;verticalAlign=top;childLayout=stackLayout;horizontal=1;startSize=26;horizontalStack=0;resizeParent=1;resizeLast=0;collapsible=1;marginBottom=0;rounded=0;shadow=0;strokeWidth=1;" vertex="1" parent="WIyWlLk6GJQsqaUBKTNV-1">
          <mxGeometry x="565" y="585" width="120" height="34" as="geometry">
            <mxRectangle x="130" y="380" width="160" height="26" as="alternateBounds" />
          </mxGeometry>
        </mxCell>
        <mxCell id="4ed0H5D4KdvsGd9FrCkh-9" value="" style="line;html=1;strokeWidth=1;align=left;verticalAlign=middle;spacingTop=-1;spacingLeft=3;spacingRight=3;rotatable=0;labelPosition=right;points=[];portConstraint=eastwest;" vertex="1" parent="4ed0H5D4KdvsGd9FrCkh-8">
          <mxGeometry y="26" width="120" height="8" as="geometry" />
        </mxCell>
        <mxCell id="4ed0H5D4KdvsGd9FrCkh-10" value="PepperoniPizza" style="swimlane;fontStyle=0;align=center;verticalAlign=top;childLayout=stackLayout;horizontal=1;startSize=26;horizontalStack=0;resizeParent=1;resizeLast=0;collapsible=1;marginBottom=0;rounded=0;shadow=0;strokeWidth=1;" vertex="1" parent="WIyWlLk6GJQsqaUBKTNV-1">
          <mxGeometry x="695" y="585" width="120" height="34" as="geometry">
            <mxRectangle x="130" y="380" width="160" height="26" as="alternateBounds" />
          </mxGeometry>
        </mxCell>
        <mxCell id="4ed0H5D4KdvsGd9FrCkh-11" value="" style="line;html=1;strokeWidth=1;align=left;verticalAlign=middle;spacingTop=-1;spacingLeft=3;spacingRight=3;rotatable=0;labelPosition=right;points=[];portConstraint=eastwest;" vertex="1" parent="4ed0H5D4KdvsGd9FrCkh-10">
          <mxGeometry y="26" width="120" height="8" as="geometry" />
        </mxCell>
        <mxCell id="4ed0H5D4KdvsGd9FrCkh-12" value="" style="endArrow=classic;html=1;rounded=0;" edge="1" parent="WIyWlLk6GJQsqaUBKTNV-1">
          <mxGeometry width="50" height="50" relative="1" as="geometry">
            <mxPoint x="210" y="377" as="sourcePoint" />
            <mxPoint x="260" y="377" as="targetPoint" />
          </mxGeometry>
        </mxCell>
        <mxCell id="4ed0H5D4KdvsGd9FrCkh-13" value="" style="endArrow=classic;html=1;rounded=0;entryX=-0.001;entryY=0.148;entryDx=0;entryDy=0;entryPerimeter=0;" edge="1" parent="WIyWlLk6GJQsqaUBKTNV-1" target="hSVaMQJo7yX8vhGdQ6RE-30">
          <mxGeometry width="50" height="50" relative="1" as="geometry">
            <mxPoint x="420" y="380" as="sourcePoint" />
            <mxPoint x="470" y="380" as="targetPoint" />
          </mxGeometry>
        </mxCell>
        <mxCell id="4ed0H5D4KdvsGd9FrCkh-14" value="" style="endArrow=block;dashed=1;endFill=0;endSize=12;html=1;rounded=0;" edge="1" parent="WIyWlLk6GJQsqaUBKTNV-1" source="4ed0H5D4KdvsGd9FrCkh-3" target="hSVaMQJo7yX8vhGdQ6RE-30">
          <mxGeometry width="160" relative="1" as="geometry">
            <mxPoint x="370" y="498" as="sourcePoint" />
            <mxPoint x="530" y="498" as="targetPoint" />
          </mxGeometry>
        </mxCell>
        <mxCell id="4ed0H5D4KdvsGd9FrCkh-15" value="" style="endArrow=block;dashed=1;endFill=0;endSize=12;html=1;rounded=0;" edge="1" parent="WIyWlLk6GJQsqaUBKTNV-1" source="4ed0H5D4KdvsGd9FrCkh-6" target="hSVaMQJo7yX8vhGdQ6RE-30">
          <mxGeometry width="160" relative="1" as="geometry">
            <mxPoint x="394" y="595" as="sourcePoint" />
            <mxPoint x="492" y="508" as="targetPoint" />
          </mxGeometry>
        </mxCell>
        <mxCell id="4ed0H5D4KdvsGd9FrCkh-16" value="" style="endArrow=block;dashed=1;endFill=0;endSize=12;html=1;rounded=0;" edge="1" parent="WIyWlLk6GJQsqaUBKTNV-1" source="4ed0H5D4KdvsGd9FrCkh-8" target="hSVaMQJo7yX8vhGdQ6RE-30">
          <mxGeometry width="160" relative="1" as="geometry">
            <mxPoint x="511" y="595" as="sourcePoint" />
            <mxPoint x="544" y="508" as="targetPoint" />
          </mxGeometry>
        </mxCell>
        <mxCell id="4ed0H5D4KdvsGd9FrCkh-17" value="" style="endArrow=block;dashed=1;endFill=0;endSize=12;html=1;rounded=0;" edge="1" parent="WIyWlLk6GJQsqaUBKTNV-1" source="4ed0H5D4KdvsGd9FrCkh-10" target="hSVaMQJo7yX8vhGdQ6RE-30">
          <mxGeometry width="160" relative="1" as="geometry">
            <mxPoint x="629" y="595" as="sourcePoint" />
            <mxPoint x="596" y="508" as="targetPoint" />
          </mxGeometry>
        </mxCell>
        <mxCell id="4ed0H5D4KdvsGd9FrCkh-20" value="這是工廠的&lt;b&gt;用戶端&lt;/b&gt;&lt;div&gt;現在PizzaStore透過&lt;br&gt;SimplePizzaFactory取得&lt;br&gt;pizza的實例&lt;/div&gt;" style="text;html=1;align=center;verticalAlign=middle;whiteSpace=wrap;rounded=0;fillColor=#f5f5f5;fontColor=#333333;strokeColor=#666666;" vertex="1" parent="WIyWlLk6GJQsqaUBKTNV-1">
          <mxGeometry x="40" y="440" width="150" height="80" as="geometry" />
        </mxCell>
        <mxCell id="4ed0H5D4KdvsGd9FrCkh-21" value="create方法通常被宣告成靜態的" style="text;html=1;align=center;verticalAlign=middle;whiteSpace=wrap;rounded=0;fillColor=#f5f5f5;fontColor=#333333;strokeColor=#666666;" vertex="1" parent="WIyWlLk6GJQsqaUBKTNV-1">
          <mxGeometry x="260" y="450" width="170" height="30" as="geometry" />
        </mxCell>
        <mxCell id="4ed0H5D4KdvsGd9FrCkh-22" value="建立pizza的&lt;b&gt;工廠&lt;/b&gt;，在應用程式裡，應該&lt;b&gt;只有他可以引用具體的pizza類別&lt;/b&gt;" style="text;html=1;align=center;verticalAlign=middle;whiteSpace=wrap;rounded=0;fillColor=#f5f5f5;fontColor=#333333;strokeColor=#666666;" vertex="1" parent="WIyWlLk6GJQsqaUBKTNV-1">
          <mxGeometry x="260" y="290" width="200" height="30" as="geometry" />
        </mxCell>
        <mxCell id="4ed0H5D4KdvsGd9FrCkh-23" value="工廠的產品：Pizza" style="text;html=1;align=center;verticalAlign=middle;whiteSpace=wrap;rounded=0;fillColor=#f5f5f5;fontColor=#333333;strokeColor=#666666;" vertex="1" parent="WIyWlLk6GJQsqaUBKTNV-1">
          <mxGeometry x="510" y="290" width="130" height="30" as="geometry" />
        </mxCell>
        <mxCell id="4ed0H5D4KdvsGd9FrCkh-24" value="將Pizza定義為&lt;b&gt;抽象類別&lt;/b&gt;&lt;div&gt;裡面有一些可以覆寫且實用的實作&lt;/div&gt;" style="text;html=1;align=center;verticalAlign=middle;whiteSpace=wrap;rounded=0;fillColor=#f5f5f5;fontColor=#333333;strokeColor=#666666;" vertex="1" parent="WIyWlLk6GJQsqaUBKTNV-1">
          <mxGeometry x="680" y="360" width="185" height="30" as="geometry" />
        </mxCell>
        <mxCell id="4ed0H5D4KdvsGd9FrCkh-26" value="這些是&lt;b&gt;具體產品&lt;/b&gt;&lt;div&gt;每一個產品都需要實作Pizza介面&lt;/div&gt;&lt;div&gt;而且都要是具體的&lt;/div&gt;&lt;div&gt;只要符合這些情況&lt;br&gt;就可以被工廠做出來送回客戶端&lt;/div&gt;" style="text;html=1;align=center;verticalAlign=middle;whiteSpace=wrap;rounded=0;fillColor=#f5f5f5;fontColor=#333333;strokeColor=#666666;" vertex="1" parent="WIyWlLk6GJQsqaUBKTNV-1">
          <mxGeometry x="100" y="585" width="185" height="80" as="geometry" />
        </mxCell>
        <mxCell id="4ed0H5D4KdvsGd9FrCkh-27" value="" style="curved=1;endArrow=classic;html=1;rounded=0;exitX=-0.014;exitY=0.394;exitDx=0;exitDy=0;exitPerimeter=0;entryX=0;entryY=0.25;entryDx=0;entryDy=0;fillColor=#f5f5f5;strokeColor=#666666;" edge="1" parent="WIyWlLk6GJQsqaUBKTNV-1">
          <mxGeometry width="50" height="50" relative="1" as="geometry">
            <mxPoint x="38.90000000000009" y="476.02" as="sourcePoint" />
            <mxPoint x="41" y="379.5" as="targetPoint" />
            <Array as="points">
              <mxPoint x="1" y="476.5" />
              <mxPoint x="1" y="384.5" />
            </Array>
          </mxGeometry>
        </mxCell>
        <mxCell id="4ed0H5D4KdvsGd9FrCkh-28" value="" style="curved=1;endArrow=classic;html=1;rounded=0;fillColor=#f5f5f5;strokeColor=#666666;" edge="1" parent="WIyWlLk6GJQsqaUBKTNV-1">
          <mxGeometry width="50" height="50" relative="1" as="geometry">
            <mxPoint x="250" y="300" as="sourcePoint" />
            <mxPoint x="250" y="360" as="targetPoint" />
            <Array as="points">
              <mxPoint x="220" y="310" />
              <mxPoint x="220" y="340" />
            </Array>
          </mxGeometry>
        </mxCell>
        <mxCell id="4ed0H5D4KdvsGd9FrCkh-29" value="" style="curved=1;endArrow=classic;html=1;rounded=0;fillColor=#f5f5f5;strokeColor=#666666;" edge="1" parent="WIyWlLk6GJQsqaUBKTNV-1">
          <mxGeometry width="50" height="50" relative="1" as="geometry">
            <mxPoint x="510" y="300" as="sourcePoint" />
            <mxPoint x="500" y="350" as="targetPoint" />
            <Array as="points">
              <mxPoint x="480" y="310" />
              <mxPoint x="480" y="340" />
            </Array>
          </mxGeometry>
        </mxCell>
        <mxCell id="4ed0H5D4KdvsGd9FrCkh-30" value="" style="curved=1;endArrow=classic;html=1;rounded=0;fillColor=#f5f5f5;strokeColor=#666666;" edge="1" parent="WIyWlLk6GJQsqaUBKTNV-1">
          <mxGeometry width="50" height="50" relative="1" as="geometry">
            <mxPoint x="680" y="380" as="sourcePoint" />
            <mxPoint x="650" y="440" as="targetPoint" />
            <Array as="points">
              <mxPoint x="650" y="390" />
              <mxPoint x="680" y="440" />
            </Array>
          </mxGeometry>
        </mxCell>
        <mxCell id="4ed0H5D4KdvsGd9FrCkh-31" value="" style="curved=1;endArrow=classic;html=1;rounded=0;fillColor=#f5f5f5;strokeColor=#666666;exitX=1.001;exitY=0.634;exitDx=0;exitDy=0;exitPerimeter=0;" edge="1" parent="WIyWlLk6GJQsqaUBKTNV-1" source="4ed0H5D4KdvsGd9FrCkh-26">
          <mxGeometry width="50" height="50" relative="1" as="geometry">
            <mxPoint x="290" y="650" as="sourcePoint" />
            <mxPoint x="420" y="630" as="targetPoint" />
            <Array as="points">
              <mxPoint x="330" y="670" />
              <mxPoint x="400" y="670" />
            </Array>
          </mxGeometry>
        </mxCell>
        <mxCell id="4ed0H5D4KdvsGd9FrCkh-32" value="" style="curved=1;endArrow=classic;html=1;rounded=0;fillColor=#f5f5f5;strokeColor=#666666;exitX=0;exitY=0.5;exitDx=0;exitDy=0;" edge="1" parent="WIyWlLk6GJQsqaUBKTNV-1" source="4ed0H5D4KdvsGd9FrCkh-21">
          <mxGeometry width="50" height="50" relative="1" as="geometry">
            <mxPoint x="239" y="468" as="sourcePoint" />
            <mxPoint x="249" y="418" as="targetPoint" />
            <Array as="points">
              <mxPoint x="220" y="470" />
              <mxPoint x="219" y="428" />
            </Array>
          </mxGeometry>
        </mxCell>
      </root>
    </mxGraphModel>
  </diagram>
</mxfile>
